<svg xmlns="http://www.w3.org/2000/svg" width="31.541" height="31" viewBox="0 0 31.541 31">
  <g id="그룹_3361" data-name="그룹 3361" transform="translate(-288 -91)">
    <path id="패스_13256" data-name="패스 13256" d="M1421.084,912.768a14.479,14.479,0,0,1,12.444,21.916l2.056,5.671-6.211-1.2a14.5,14.5,0,1,1-8.289-26.388Z" transform="translate(-1117.584 -820.768)" fill="none" stroke="#fff" stroke-width="2"/>
    <path id="Icon_awesome-question" data-name="Icon awesome-question" d="M6.968,0A5.676,5.676,0,0,0,1.926,2.667a.7.7,0,0,0,.152.963l1.264.958a.7.7,0,0,0,.974-.122A2.842,2.842,0,0,1,6.741,3.018c.9,0,2.016.58,2.016,1.454,0,.661-.545,1-1.435,1.5C6.283,6.553,4.91,7.277,4.91,9.088v.287a.7.7,0,0,0,.7.7H7.736a.7.7,0,0,0,.7-.7V9.206C8.44,7.95,12.11,7.9,12.11,4.5,12.11,1.941,9.455,0,6.968,0ZM6.675,10.941A2.029,2.029,0,1,0,8.7,12.971,2.032,2.032,0,0,0,6.675,10.941Z" transform="translate(296.673 99.5)" fill="#fff"/>
  </g>
</svg>
